<?xml version="1.0" encoding="UTF-8"?>
<svg width="55px" height="55px" viewBox="0 0 55 55" version="1.1" xmlns="http://www.w3.org/2000/svg" xmlns:xlink="http://www.w3.org/1999/xlink">
    <!-- Generator: Sketch 64 (93537) - https://sketch.com -->
    <title>Star</title>
    <desc>Created with Sketch.</desc>
    <g id="Page-1" stroke="none" stroke-width="1" fill="none" fill-rule="evenodd">
        <g id="Desktop-HD-Copy-2" transform="translate(-744.000000, -61.000000)" fill="#FF741C">
            <polygon id="Star" points="771.5 110.049595 765.380674 115.310518 762.149981 107.915515 754.35403 110.000366 754.651848 101.935953 746.723356 100.431803 750.490698 93.2952361 744 88.5 750.490698 83.7047639 746.723356 76.5681972 754.651848 75.064047 754.35403 66.9996342 762.149981 69.0844854 765.380674 61.6894824 771.5 66.9504046 777.619326 61.6894824 780.850019 69.0844854 788.64597 66.9996342 788.348152 75.064047 796.276644 76.5681972 792.509302 83.7047639 799 88.5 792.509302 93.2952361 796.276644 100.431803 788.348152 101.935953 788.64597 110.000366 780.850019 107.915515 777.619326 115.310518"></polygon>
        </g>
    </g>
</svg>