<?xml version="1.0" encoding="utf-8"?>
<!-- Generator: Adobe Illustrator 23.0.4, SVG Export Plug-In . SVG Version: 6.00 Build 0)  -->
<svg version="1.1" id="Layer_1" xmlns="http://www.w3.org/2000/svg" xmlns:xlink="http://www.w3.org/1999/xlink" x="0px" y="0px"
	 viewBox="0 0 53 53.2" style="enable-background:new 0 0 53 53.2;" xml:space="preserve">
<style type="text/css">
	.st0{fill:#9DB0B8;}
</style>
<path class="st0" d="M35.4,33.9L35.4,33.9L35.4,33.9z"/>
<path class="st0" d="M17.5,33.8L17.5,33.8L17.5,33.8z"/>
<path class="st0" d="M35.4,33.9L35.4,33.9L35.4,33.9z"/>
<path class="st0" d="M35.6,33.8C35.5,33.8,35.5,33.8,35.6,33.8C35.5,33.8,35.5,33.8,35.6,33.8L35.6,33.8z"/>
<path class="st0" d="M35.5,33.9C35.5,33.9,35.4,33.9,35.5,33.9C35.4,33.9,35.4,33.9,35.5,33.9C35.4,33.9,35.4,33.9,35.5,33.9z"/>
<path class="st0" d="M17.6,33.9L17.6,33.9L17.6,33.9z"/>
<path class="st0" d="M2.4,50.6L2.4,50.6L2.4,50.6L2.4,50.6c0.6,0.6,1.3,0.9,2.1,0.9h44c1.6,0,3-1.3,3-3c0-0.1,0-27.1,0-27l0,0l0,0
	c0-0.8-0.4-0.7-7.2-6.5V7.6c0-0.6-0.4-1-1-1h-9l-4.9-4.1c-1.7-1.3-4.2-1.3-6,0l-4.8,4h-9c-0.6,0-1,0.4-1,1V15l-6.8,5.8l0,0
	c-0.2,0.2-0.3,0.4-0.3,0.7v27C1.5,49.3,1.8,50.1,2.4,50.6L2.4,50.6z M4.9,49.5l13.6-13.7c0.6-0.7,1.6-1,2.4-1h11.2
	c0.8,0,1.7,0.3,2.4,1l13.6,13.7H4.9z M44.3,17.6l4.6,3.8c-0.1,0.1-4.9,3.6-4.6,3.4V17.6z M49.5,23.5v24.6L35.9,34.4
	c-0.2-0.2-0.3-0.3-0.5-0.4l0,0l0,0c0,0,0,0,0.1,0l0,0l0,0c0,0,0,0,0.1-0.1l0,0c0,0,0.1,0,0.1-0.1l0,0l0,0h0.1
	C36.4,33.2,39.3,31,49.5,23.5z M35.6,33.8L35.6,33.8L35.6,33.8z M24.7,4.1c1-0.8,2.6-0.7,3.5,0l3,2.5h-9.4L24.7,4.1z M10.7,8.6
	c8.2,0,23.7,0,31.6,0c0,5.9,0,14.1,0,17.7l-9,6.6c-0.2-0.1-0.8-0.2-1.3-0.2H20.9c-0.4,0-1,0.1-1.3,0.2l-9-6.6
	C10.7,22.6,10.7,14.4,10.7,8.6z M8.7,17.6v7.2l-4.6-3.4L8.7,17.6z M3.5,23.5c10.2,7.5,13.1,9.7,13.9,10.3c0,0,0,0,0.1,0.1l0,0l0,0
	l0,0l0,0l0,0c0,0,0.1,0,0.1,0.1l0,0l0,0l0,0l0,0c-0.2,0.1-0.3,0.3-0.5,0.4L3.5,48.1V23.5z M17.4,33.8L17.4,33.8L17.4,33.8z"/>
<g>
	<path class="st0" d="M28.7,17.7h1.5l-0.8,4.1c0,0.2-0.1,0.4-0.1,0.6s0.1,0.4,0.2,0.4c0.8,0,1.7-0.9,1.7-2.8c0-2.7-1.9-4.2-4.4-4.2
		c-2.8,0-4.6,2.1-4.6,4.9c0,3,2,4.9,4.8,4.9c1.3,0,2.4-0.5,3.3-1.2h1.5c-1.2,1.7-2.9,2.6-4.9,2.6c-3.5,0-6.4-2.7-6.4-6.3
		s2.8-6.3,6.3-6.3c2.9,0,5.7,2,5.7,5.1c0,3.7-3.2,4.9-4.2,4.9c-0.5,0-0.9-0.3-0.9-0.9l0,0c-0.4,0.5-1.1,0.9-1.6,0.9
		c-1.4,0-2.7-1.4-2.7-3c0-2,1.3-4,3.4-4c0.8,0,1.5,0.3,2,1.1L28.7,17.7z M28,20.6c0-0.8-0.5-1.4-1.3-1.4c-1,0-1.8,0.9-1.8,2
		c0,0.8,0.5,1.4,1.3,1.4C27.3,22.7,28,21.6,28,20.6z"/>
</g>
</svg>
