<?xml version="1.0" encoding="utf-8"?>
<!-- Generator: Adobe Illustrator 23.0.4, SVG Export Plug-In . SVG Version: 6.00 Build 0)  -->
<svg version="1.1" id="Layer_1" xmlns="http://www.w3.org/2000/svg" xmlns:xlink="http://www.w3.org/1999/xlink" x="0px" y="0px"
	 viewBox="0 0 42 42" style="enable-background:new 0 0 42 42;" xml:space="preserve">
<style type="text/css">
	.st0{fill:#FFFFFF;}
</style>
<g>
	<path class="st0" d="M20.79,4.11c5.34,0,5.97,0.02,8.08,0.12c1.95,0.09,3.01,0.42,3.71,0.69c0.93,0.36,1.6,0.8,2.3,1.5
		c0.7,0.7,1.13,1.37,1.5,2.3c0.27,0.71,0.6,1.76,0.69,3.71c0.1,2.11,0.12,2.74,0.12,8.08c0,5.34-0.02,5.97-0.12,8.08
		c-0.09,1.95-0.42,3.01-0.69,3.71c-0.36,0.93-0.8,1.6-1.5,2.3c-0.7,0.7-1.37,1.13-2.3,1.5c-0.71,0.27-1.76,0.6-3.71,0.69
		c-2.11,0.1-2.74,0.12-8.08,0.12c-5.34,0-5.97-0.02-8.08-0.12c-1.95-0.09-3.01-0.42-3.71-0.69c-0.93-0.36-1.6-0.8-2.3-1.5
		c-0.7-0.7-1.13-1.36-1.5-2.3c-0.27-0.71-0.6-1.76-0.69-3.71c-0.1-2.11-0.12-2.74-0.12-8.08c0-5.34,0.02-5.97,0.12-8.08
		C4.6,10.47,4.93,9.41,5.2,8.71c0.36-0.93,0.8-1.6,1.5-2.3c0.7-0.7,1.36-1.13,2.3-1.5c0.7-0.27,1.76-0.6,3.71-0.69
		C14.82,4.13,15.45,4.11,20.79,4.11 M20.79,0.5c-5.43,0-6.11,0.02-8.25,0.12c-2.13,0.1-3.58,0.44-4.86,0.93
		C6.37,2.06,5.26,2.75,4.15,3.86C3.04,4.97,2.35,6.09,1.84,7.4c-0.49,1.27-0.83,2.73-0.93,4.85c-0.1,2.13-0.12,2.81-0.12,8.25
		c0,5.43,0.02,6.11,0.12,8.25c0.1,2.13,0.43,3.58,0.93,4.85c0.51,1.32,1.2,2.43,2.31,3.54c1.11,1.11,2.23,1.8,3.54,2.31
		c1.27,0.49,2.73,0.83,4.86,0.93c2.13,0.1,2.81,0.12,8.25,0.12c5.43,0,6.11-0.02,8.25-0.12c2.13-0.1,3.58-0.43,4.85-0.93
		c1.32-0.51,2.43-1.19,3.54-2.31c1.11-1.11,1.8-2.23,2.31-3.54c0.5-1.27,0.83-2.73,0.93-4.85c0.1-2.13,0.12-2.81,0.12-8.25
		c0-5.43-0.02-6.11-0.12-8.25c-0.1-2.13-0.43-3.58-0.93-4.85c-0.51-1.32-1.19-2.43-2.31-3.54c-1.11-1.11-2.23-1.8-3.54-2.31
		c-1.27-0.49-2.73-0.83-4.85-0.93C26.9,0.53,26.22,0.5,20.79,0.5"/>
	<path class="st0" d="M20.79,10.23c-5.67,0-10.27,4.6-10.27,10.27c0,5.67,4.6,10.27,10.27,10.27c5.67,0,10.27-4.6,10.27-10.27
		C31.06,14.83,26.46,10.23,20.79,10.23 M20.79,27.17c-3.68,0-6.67-2.99-6.67-6.67c0-3.68,2.99-6.67,6.67-6.67
		c3.68,0,6.67,2.98,6.67,6.67C27.46,24.19,24.47,27.17,20.79,27.17"/>
	<path class="st0" d="M33.87,9.83c0,1.33-1.07,2.4-2.4,2.4c-1.33,0-2.4-1.07-2.4-2.4c0-1.33,1.08-2.4,2.4-2.4
		C32.79,7.43,33.87,8.5,33.87,9.83"/>
</g>
</svg>
