<?xml version="1.0" encoding="utf-8"?>
<!-- Generator: Adobe Illustrator 23.0.4, SVG Export Plug-In . SVG Version: 6.00 Build 0)  -->
<svg version="1.1" id="Layer_1" xmlns="http://www.w3.org/2000/svg" xmlns:xlink="http://www.w3.org/1999/xlink" x="0px" y="0px"
	 viewBox="0 0 42 42" style="enable-background:new 0 0 42 42;" xml:space="preserve">
<style type="text/css">
	.st0{fill:#FFFFFF;}
</style>
<path class="st0" d="M4.26,32.04c3.15,2.02,6.9,3.2,10.92,3.2c13.23,0,20.71-11.18,20.26-21.2c1.39-1,2.6-2.26,3.56-3.69
	c-1.28,0.57-2.65,0.95-4.09,1.12c1.47-0.88,2.6-2.28,3.13-3.94c-1.38,0.82-2.9,1.41-4.52,1.73c-1.3-1.39-3.15-2.25-5.2-2.25
	c-4.6,0-7.98,4.29-6.94,8.75c-5.92-0.3-11.18-3.13-14.69-7.45c-1.87,3.2-0.97,7.4,2.21,9.52c-1.17-0.04-2.27-0.36-3.23-0.89
	c-0.08,3.3,2.29,6.39,5.72,7.08c-1,0.27-2.1,0.33-3.22,0.12c0.9,2.83,3.54,4.89,6.66,4.95C11.82,31.44,8.04,32.48,4.26,32.04z"/>
</svg>
